{
    "asset" : {
        "generator" : "Khronos glTF Blender I/O v1.3.48",
        "version" : "2.0"
    },
    "scene" : 0,
    "scenes" : [
        {
            "name" : "Scene",
            "nodes" : [
                0
            ]
        }
    ],
    "nodes" : [
        {
            "mesh" : 0,
            "name" : "arm.l",
            "translation" : [
                0.5374400019645691,
                2.87138295173645,
                -0.12253596633672714
            ]
        }
    ],
    "animations" : [
        {
            "channels" : [
                {
                    "sampler" : 0,
                    "target" : {
                        "node" : 0,
                        "path" : "translation"
                    }
                },
                {
                    "sampler" : 1,
                    "target" : {
                        "node" : 0,
                        "path" : "rotation"
                    }
                },
                {
                    "sampler" : 2,
                    "target" : {
                        "node" : 0,
                        "path" : "scale"
                    }
                }
            ],
            "name" : "arm.l_arm.l",
            "samplers" : [
                {
                    "input" : 8,
                    "interpolation" : "LINEAR",
                    "output" : 9
                },
                {
                    "input" : 8,
                    "interpolation" : "LINEAR",
                    "output" : 10
                },
                {
                    "input" : 8,
                    "interpolation" : "LINEAR",
                    "output" : 11
                }
            ]
        }
    ],
    "materials" : [
        {
            "doubleSided" : true,
            "emissiveFactor" : [
                0,
                0,
                0
            ],
            "name" : "Alpha_Joints_MAT.003",
            "pbrMetallicRoughness" : {
                "baseColorFactor" : [
                    0.15355153381824493,
                    0.21289387345314026,
                    0.2222171425819397,
                    1
                ],
                "metallicFactor" : 0.5,
                "roughnessFactor" : 0.858578622341156
            }
        },
        {
            "doubleSided" : true,
            "emissiveFactor" : [
                0,
                0,
                0
            ],
            "name" : "Alpha_Body_MAT.003",
            "pbrMetallicRoughness" : {
                "baseColorFactor" : [
                    0.09657000750303268,
                    0.42161980271339417,
                    0.5220000147819519,
                    1
                ],
                "metallicFactor" : 0,
                "roughnessFactor" : 0.8082915544509888
            }
        }
    ],
    "meshes" : [
        {
            "name" : "Alpha_Joints.002",
            "primitives" : [
                {
                    "attributes" : {
                        "POSITION" : 0,
                        "NORMAL" : 1,
                        "TEXCOORD_0" : 2
                    },
                    "indices" : 3,
                    "material" : 0
                },
                {
                    "attributes" : {
                        "POSITION" : 4,
                        "NORMAL" : 5,
                        "TEXCOORD_0" : 6
                    },
                    "indices" : 7,
                    "material" : 1
                }
            ]
        }
    ],
    "accessors" : [
        {
            "bufferView" : 0,
            "componentType" : 5126,
            "count" : 439,
            "max" : [
                -0.056437015533447266,
                0.10927248001098633,
                0.10496003925800323
            ],
            "min" : [
                -0.26801201701164246,
                -0.10941791534423828,
                -0.1067468449473381
            ],
            "type" : "VEC3"
        },
        {
            "bufferView" : 1,
            "componentType" : 5126,
            "count" : 439,
            "type" : "VEC3"
        },
        {
            "bufferView" : 2,
            "componentType" : 5126,
            "count" : 439,
            "type" : "VEC2"
        },
        {
            "bufferView" : 3,
            "componentType" : 5123,
            "count" : 2280,
            "type" : "SCALAR"
        },
        {
            "bufferView" : 4,
            "componentType" : 5126,
            "count" : 797,
            "max" : [
                0.39309072494506836,
                0.12465882301330566,
                0.1477634161710739
            ],
            "min" : [
                -0.19861847162246704,
                -0.14034533500671387,
                -0.13055890798568726
            ],
            "type" : "VEC3"
        },
        {
            "bufferView" : 5,
            "componentType" : 5126,
            "count" : 797,
            "type" : "VEC3"
        },
        {
            "bufferView" : 6,
            "componentType" : 5126,
            "count" : 797,
            "type" : "VEC2"
        },
        {
            "bufferView" : 7,
            "componentType" : 5123,
            "count" : 3516,
            "type" : "SCALAR"
        },
        {
            "bufferView" : 8,
            "componentType" : 5126,
            "count" : 1,
            "max" : [
                0.033333336313565574
            ],
            "min" : [
                0.033333336313565574
            ],
            "type" : "SCALAR"
        },
        {
            "bufferView" : 9,
            "componentType" : 5126,
            "count" : 1,
            "type" : "VEC3"
        },
        {
            "bufferView" : 10,
            "componentType" : 5126,
            "count" : 1,
            "type" : "VEC4"
        },
        {
            "bufferView" : 11,
            "componentType" : 5126,
            "count" : 1,
            "type" : "VEC3"
        }
    ],
    "bufferViews" : [
        {
            "buffer" : 0,
            "byteLength" : 5268,
            "byteOffset" : 0
        },
        {
            "buffer" : 0,
            "byteLength" : 5268,
            "byteOffset" : 5268
        },
        {
            "buffer" : 0,
            "byteLength" : 3512,
            "byteOffset" : 10536
        },
        {
            "buffer" : 0,
            "byteLength" : 4560,
            "byteOffset" : 14048
        },
        {
            "buffer" : 0,
            "byteLength" : 9564,
            "byteOffset" : 18608
        },
        {
            "buffer" : 0,
            "byteLength" : 9564,
            "byteOffset" : 28172
        },
        {
            "buffer" : 0,
            "byteLength" : 6376,
            "byteOffset" : 37736
        },
        {
            "buffer" : 0,
            "byteLength" : 7032,
            "byteOffset" : 44112
        },
        {
            "buffer" : 0,
            "byteLength" : 4,
            "byteOffset" : 51144
        },
        {
            "buffer" : 0,
            "byteLength" : 12,
            "byteOffset" : 51148
        },
        {
            "buffer" : 0,
            "byteLength" : 16,
            "byteOffset" : 51160
        },
        {
            "buffer" : 0,
            "byteLength" : 12,
            "byteOffset" : 51176
        }
    ],
    "buffers" : [
        {
            "byteLength" : 51188,
            "uri" : "data:application/octet-stream;base64,"
        }
    ]
}
