{
    "asset" : {
        "generator" : "Khronos glTF Blender I/O v1.3.48",
        "version" : "2.0"
    },
    "scene" : 0,
    "scenes" : [
        {
            "name" : "Scene",
            "nodes" : [
                0
            ]
        }
    ],
    "nodes" : [
        {
            "mesh" : 0,
            "name" : "arm.r",
            "translation" : [
                -0.5374406576156616,
                2.871368408203125,
                -0.1225363165140152
            ]
        }
    ],
    "animations" : [
        {
            "channels" : [
                {
                    "sampler" : 0,
                    "target" : {
                        "node" : 0,
                        "path" : "translation"
                    }
                },
                {
                    "sampler" : 1,
                    "target" : {
                        "node" : 0,
                        "path" : "rotation"
                    }
                },
                {
                    "sampler" : 2,
                    "target" : {
                        "node" : 0,
                        "path" : "scale"
                    }
                }
            ],
            "name" : "arm.r_arm.r",
            "samplers" : [
                {
                    "input" : 8,
                    "interpolation" : "LINEAR",
                    "output" : 9
                },
                {
                    "input" : 8,
                    "interpolation" : "LINEAR",
                    "output" : 10
                },
                {
                    "input" : 8,
                    "interpolation" : "LINEAR",
                    "output" : 11
                }
            ]
        }
    ],
    "materials" : [
        {
            "doubleSided" : true,
            "emissiveFactor" : [
                0,
                0,
                0
            ],
            "name" : "Alpha_Body_MAT.002",
            "pbrMetallicRoughness" : {
                "baseColorFactor" : [
                    0.09657000750303268,
                    0.42161980271339417,
                    0.5220000147819519,
                    1
                ],
                "metallicFactor" : 0,
                "roughnessFactor" : 0.8082915544509888
            }
        },
        {
            "doubleSided" : true,
            "emissiveFactor" : [
                0,
                0,
                0
            ],
            "name" : "Alpha_Joints_MAT.002",
            "pbrMetallicRoughness" : {
                "baseColorFactor" : [
                    0.15355153381824493,
                    0.21289387345314026,
                    0.2222171425819397,
                    1
                ],
                "metallicFactor" : 0.5,
                "roughnessFactor" : 0.858578622341156
            }
        }
    ],
    "meshes" : [
        {
            "name" : "Alpha_Surface.005",
            "primitives" : [
                {
                    "attributes" : {
                        "POSITION" : 0,
                        "NORMAL" : 1,
                        "TEXCOORD_0" : 2
                    },
                    "indices" : 3,
                    "material" : 0
                },
                {
                    "attributes" : {
                        "POSITION" : 4,
                        "NORMAL" : 5,
                        "TEXCOORD_0" : 6
                    },
                    "indices" : 7,
                    "material" : 1
                }
            ]
        }
    ],
    "accessors" : [
        {
            "bufferView" : 0,
            "componentType" : 5126,
            "count" : 797,
            "max" : [
                0.198619544506073,
                0.1246645450592041,
                0.14776365458965302
            ],
            "min" : [
                -0.39309096336364746,
                -0.14033818244934082,
                -0.13055874407291412
            ],
            "type" : "VEC3"
        },
        {
            "bufferView" : 1,
            "componentType" : 5126,
            "count" : 797,
            "type" : "VEC3"
        },
        {
            "bufferView" : 2,
            "componentType" : 5126,
            "count" : 797,
            "type" : "VEC2"
        },
        {
            "bufferView" : 3,
            "componentType" : 5123,
            "count" : 3516,
            "type" : "SCALAR"
        },
        {
            "bufferView" : 4,
            "componentType" : 5126,
            "count" : 439,
            "max" : [
                0.2680119574069977,
                0.10928034782409668,
                0.10496041178703308
            ],
            "min" : [
                0.056436896324157715,
                -0.10941004753112793,
                -0.10674645006656647
            ],
            "type" : "VEC3"
        },
        {
            "bufferView" : 5,
            "componentType" : 5126,
            "count" : 439,
            "type" : "VEC3"
        },
        {
            "bufferView" : 6,
            "componentType" : 5126,
            "count" : 439,
            "type" : "VEC2"
        },
        {
            "bufferView" : 7,
            "componentType" : 5123,
            "count" : 2280,
            "type" : "SCALAR"
        },
        {
            "bufferView" : 8,
            "componentType" : 5126,
            "count" : 1,
            "max" : [
                0.033333336313565574
            ],
            "min" : [
                0.033333336313565574
            ],
            "type" : "SCALAR"
        },
        {
            "bufferView" : 9,
            "componentType" : 5126,
            "count" : 1,
            "type" : "VEC3"
        },
        {
            "bufferView" : 10,
            "componentType" : 5126,
            "count" : 1,
            "type" : "VEC4"
        },
        {
            "bufferView" : 11,
            "componentType" : 5126,
            "count" : 1,
            "type" : "VEC3"
        }
    ],
    "bufferViews" : [
        {
            "buffer" : 0,
            "byteLength" : 9564,
            "byteOffset" : 0
        },
        {
            "buffer" : 0,
            "byteLength" : 9564,
            "byteOffset" : 9564
        },
        {
            "buffer" : 0,
            "byteLength" : 6376,
            "byteOffset" : 19128
        },
        {
            "buffer" : 0,
            "byteLength" : 7032,
            "byteOffset" : 25504
        },
        {
            "buffer" : 0,
            "byteLength" : 5268,
            "byteOffset" : 32536
        },
        {
            "buffer" : 0,
            "byteLength" : 5268,
            "byteOffset" : 37804
        },
        {
            "buffer" : 0,
            "byteLength" : 3512,
            "byteOffset" : 43072
        },
        {
            "buffer" : 0,
            "byteLength" : 4560,
            "byteOffset" : 46584
        },
        {
            "buffer" : 0,
            "byteLength" : 4,
            "byteOffset" : 51144
        },
        {
            "buffer" : 0,
            "byteLength" : 12,
            "byteOffset" : 51148
        },
        {
            "buffer" : 0,
            "byteLength" : 16,
            "byteOffset" : 51160
        },
        {
            "buffer" : 0,
            "byteLength" : 12,
            "byteOffset" : 51176
        }
    ],
    "buffers" : [
        {
            "byteLength" : 51188,
            "uri" : "data:application/octet-stream;base64,"
        }
    ]
}
