{
    "asset" : {
        "generator" : "Khronos glTF Blender I/O v1.3.48",
        "version" : "2.0"
    },
    "scene" : 0,
    "scenes" : [
        {
            "name" : "Scene",
            "nodes" : [
                0
            ]
        }
    ],
    "nodes" : [
        {
            "mesh" : 0,
            "name" : "forearm.r",
            "translation" : [
                -1.634900689125061,
                2.855720281600952,
                -0.11914729326963425
            ]
        }
    ],
    "animations" : [
        {
            "channels" : [
                {
                    "sampler" : 0,
                    "target" : {
                        "node" : 0,
                        "path" : "translation"
                    }
                },
                {
                    "sampler" : 1,
                    "target" : {
                        "node" : 0,
                        "path" : "rotation"
                    }
                },
                {
                    "sampler" : 2,
                    "target" : {
                        "node" : 0,
                        "path" : "scale"
                    }
                }
            ],
            "name" : "forearm.r_forearm.r",
            "samplers" : [
                {
                    "input" : 8,
                    "interpolation" : "LINEAR",
                    "output" : 9
                },
                {
                    "input" : 8,
                    "interpolation" : "LINEAR",
                    "output" : 10
                },
                {
                    "input" : 8,
                    "interpolation" : "LINEAR",
                    "output" : 11
                }
            ]
        }
    ],
    "materials" : [
        {
            "doubleSided" : true,
            "emissiveFactor" : [
                0,
                0,
                0
            ],
            "name" : "Alpha_Joints_MAT",
            "pbrMetallicRoughness" : {
                "baseColorFactor" : [
                    0.15355153381824493,
                    0.21289387345314026,
                    0.2222171425819397,
                    1
                ],
                "metallicFactor" : 0.5,
                "roughnessFactor" : 0.858578622341156
            }
        },
        {
            "doubleSided" : true,
            "emissiveFactor" : [
                0,
                0,
                0
            ],
            "name" : "Alpha_Body_MAT",
            "pbrMetallicRoughness" : {
                "baseColorFactor" : [
                    0.09657000750303268,
                    0.42161980271339417,
                    0.5220000147819519,
                    1
                ],
                "metallicFactor" : 0,
                "roughnessFactor" : 0.8082915544509888
            }
        }
    ],
    "meshes" : [
        {
            "name" : "Alpha_Joints.003",
            "primitives" : [
                {
                    "attributes" : {
                        "POSITION" : 0,
                        "NORMAL" : 1,
                        "TEXCOORD_0" : 2
                    },
                    "indices" : 3,
                    "material" : 0
                },
                {
                    "attributes" : {
                        "POSITION" : 4,
                        "NORMAL" : 5,
                        "TEXCOORD_0" : 6
                    },
                    "indices" : 7,
                    "material" : 1
                }
            ]
        }
    ],
    "accessors" : [
        {
            "bufferView" : 0,
            "componentType" : 5126,
            "count" : 3383,
            "max" : [
                0.7954452037811279,
                0.10227394104003906,
                0.15735523402690887
            ],
            "min" : [
                -0.2556490898132324,
                -0.13014841079711914,
                -0.12602457404136658
            ],
            "type" : "VEC3"
        },
        {
            "bufferView" : 1,
            "componentType" : 5126,
            "count" : 3383,
            "type" : "VEC3"
        },
        {
            "bufferView" : 2,
            "componentType" : 5126,
            "count" : 3383,
            "type" : "VEC2"
        },
        {
            "bufferView" : 3,
            "componentType" : 5123,
            "count" : 16440,
            "type" : "SCALAR"
        },
        {
            "bufferView" : 4,
            "componentType" : 5126,
            "count" : 4785,
            "max" : [
                0.6971256732940674,
                0.12369561195373535,
                0.17505282163619995
            ],
            "min" : [
                -0.3119518756866455,
                -0.15536212921142578,
                -0.12528687715530396
            ],
            "type" : "VEC3"
        },
        {
            "bufferView" : 5,
            "componentType" : 5126,
            "count" : 4785,
            "type" : "VEC3"
        },
        {
            "bufferView" : 6,
            "componentType" : 5126,
            "count" : 4785,
            "type" : "VEC2"
        },
        {
            "bufferView" : 7,
            "componentType" : 5123,
            "count" : 20742,
            "type" : "SCALAR"
        },
        {
            "bufferView" : 8,
            "componentType" : 5126,
            "count" : 1,
            "max" : [
                0.033333336313565574
            ],
            "min" : [
                0.033333336313565574
            ],
            "type" : "SCALAR"
        },
        {
            "bufferView" : 9,
            "componentType" : 5126,
            "count" : 1,
            "type" : "VEC3"
        },
        {
            "bufferView" : 10,
            "componentType" : 5126,
            "count" : 1,
            "type" : "VEC4"
        },
        {
            "bufferView" : 11,
            "componentType" : 5126,
            "count" : 1,
            "type" : "VEC3"
        }
    ],
    "bufferViews" : [
        {
            "buffer" : 0,
            "byteLength" : 40596,
            "byteOffset" : 0
        },
        {
            "buffer" : 0,
            "byteLength" : 40596,
            "byteOffset" : 40596
        },
        {
            "buffer" : 0,
            "byteLength" : 27064,
            "byteOffset" : 81192
        },
        {
            "buffer" : 0,
            "byteLength" : 32880,
            "byteOffset" : 108256
        },
        {
            "buffer" : 0,
            "byteLength" : 57420,
            "byteOffset" : 141136
        },
        {
            "buffer" : 0,
            "byteLength" : 57420,
            "byteOffset" : 198556
        },
        {
            "buffer" : 0,
            "byteLength" : 38280,
            "byteOffset" : 255976
        },
        {
            "buffer" : 0,
            "byteLength" : 41484,
            "byteOffset" : 294256
        },
        {
            "buffer" : 0,
            "byteLength" : 4,
            "byteOffset" : 335740
        },
        {
            "buffer" : 0,
            "byteLength" : 12,
            "byteOffset" : 335744
        },
        {
            "buffer" : 0,
            "byteLength" : 16,
            "byteOffset" : 335756
        },
        {
            "buffer" : 0,
            "byteLength" : 12,
            "byteOffset" : 335772
        }
    ],
    "buffers" : [
        {
            "byteLength" : 335784,
            "uri" : "data:application/octet-stream;base64,"
        }
    ]
}
