{
    "asset" : {
        "generator" : "Khronos glTF Blender I/O v1.3.48",
        "version" : "2.0"
    },
    "scene" : 0,
    "scenes" : [
        {
            "name" : "Scene",
            "nodes" : [
                0
            ]
        }
    ],
    "nodes" : [
        {
            "mesh" : 0,
            "name" : "forearm.l",
            "translation" : [
                1.6348963975906372,
                2.8557426929473877,
                -0.1191418245434761
            ]
        }
    ],
    "animations" : [
        {
            "channels" : [
                {
                    "sampler" : 0,
                    "target" : {
                        "node" : 0,
                        "path" : "translation"
                    }
                },
                {
                    "sampler" : 1,
                    "target" : {
                        "node" : 0,
                        "path" : "rotation"
                    }
                },
                {
                    "sampler" : 2,
                    "target" : {
                        "node" : 0,
                        "path" : "scale"
                    }
                }
            ],
            "name" : "forearm.l_forearm.l",
            "samplers" : [
                {
                    "input" : 8,
                    "interpolation" : "LINEAR",
                    "output" : 9
                },
                {
                    "input" : 8,
                    "interpolation" : "LINEAR",
                    "output" : 10
                },
                {
                    "input" : 8,
                    "interpolation" : "LINEAR",
                    "output" : 11
                }
            ]
        }
    ],
    "materials" : [
        {
            "doubleSided" : true,
            "emissiveFactor" : [
                0,
                0,
                0
            ],
            "name" : "Alpha_Body_MAT.001",
            "pbrMetallicRoughness" : {
                "baseColorFactor" : [
                    0.09657000750303268,
                    0.42161980271339417,
                    0.5220000147819519,
                    1
                ],
                "metallicFactor" : 0,
                "roughnessFactor" : 0.8082915544509888
            }
        },
        {
            "doubleSided" : true,
            "emissiveFactor" : [
                0,
                0,
                0
            ],
            "name" : "Alpha_Joints_MAT.001",
            "pbrMetallicRoughness" : {
                "baseColorFactor" : [
                    0.15355153381824493,
                    0.21289387345314026,
                    0.2222171425819397,
                    1
                ],
                "metallicFactor" : 0.5,
                "roughnessFactor" : 0.858578622341156
            }
        }
    ],
    "meshes" : [
        {
            "name" : "Alpha_Surface.001",
            "primitives" : [
                {
                    "attributes" : {
                        "POSITION" : 0,
                        "NORMAL" : 1,
                        "TEXCOORD_0" : 2
                    },
                    "indices" : 3,
                    "material" : 0
                },
                {
                    "attributes" : {
                        "POSITION" : 4,
                        "NORMAL" : 5,
                        "TEXCOORD_0" : 6
                    },
                    "indices" : 7,
                    "material" : 1
                }
            ]
        }
    ],
    "accessors" : [
        {
            "bufferView" : 0,
            "componentType" : 5126,
            "count" : 4785,
            "max" : [
                0.31195068359375,
                0.1236884593963623,
                0.17505532503128052
            ],
            "min" : [
                -0.6971201300621033,
                -0.15536046028137207,
                -0.12528637051582336
            ],
            "type" : "VEC3"
        },
        {
            "bufferView" : 1,
            "componentType" : 5126,
            "count" : 4785,
            "type" : "VEC3"
        },
        {
            "bufferView" : 2,
            "componentType" : 5126,
            "count" : 4785,
            "type" : "VEC2"
        },
        {
            "bufferView" : 3,
            "componentType" : 5123,
            "count" : 20742,
            "type" : "SCALAR"
        },
        {
            "bufferView" : 4,
            "componentType" : 5126,
            "count" : 3383,
            "max" : [
                0.2556478977203369,
                0.10226559638977051,
                0.15735745429992676
            ],
            "min" : [
                -0.7954410910606384,
                -0.13014745712280273,
                -0.12359235435724258
            ],
            "type" : "VEC3"
        },
        {
            "bufferView" : 5,
            "componentType" : 5126,
            "count" : 3383,
            "type" : "VEC3"
        },
        {
            "bufferView" : 6,
            "componentType" : 5126,
            "count" : 3383,
            "type" : "VEC2"
        },
        {
            "bufferView" : 7,
            "componentType" : 5123,
            "count" : 16440,
            "type" : "SCALAR"
        },
        {
            "bufferView" : 8,
            "componentType" : 5126,
            "count" : 1,
            "max" : [
                0.033333336313565574
            ],
            "min" : [
                0.033333336313565574
            ],
            "type" : "SCALAR"
        },
        {
            "bufferView" : 9,
            "componentType" : 5126,
            "count" : 1,
            "type" : "VEC3"
        },
        {
            "bufferView" : 10,
            "componentType" : 5126,
            "count" : 1,
            "type" : "VEC4"
        },
        {
            "bufferView" : 11,
            "componentType" : 5126,
            "count" : 1,
            "type" : "VEC3"
        }
    ],
    "bufferViews" : [
        {
            "buffer" : 0,
            "byteLength" : 57420,
            "byteOffset" : 0
        },
        {
            "buffer" : 0,
            "byteLength" : 57420,
            "byteOffset" : 57420
        },
        {
            "buffer" : 0,
            "byteLength" : 38280,
            "byteOffset" : 114840
        },
        {
            "buffer" : 0,
            "byteLength" : 41484,
            "byteOffset" : 153120
        },
        {
            "buffer" : 0,
            "byteLength" : 40596,
            "byteOffset" : 194604
        },
        {
            "buffer" : 0,
            "byteLength" : 40596,
            "byteOffset" : 235200
        },
        {
            "buffer" : 0,
            "byteLength" : 27064,
            "byteOffset" : 275796
        },
        {
            "buffer" : 0,
            "byteLength" : 32880,
            "byteOffset" : 302860
        },
        {
            "buffer" : 0,
            "byteLength" : 4,
            "byteOffset" : 335740
        },
        {
            "buffer" : 0,
            "byteLength" : 12,
            "byteOffset" : 335744
        },
        {
            "buffer" : 0,
            "byteLength" : 16,
            "byteOffset" : 335756
        },
        {
            "buffer" : 0,
            "byteLength" : 12,
            "byteOffset" : 335772
        }
    ],
    "buffers" : [
        {
            "byteLength" : 335784,
            "uri" : "data:application/octet-stream;base64,"
        }
    ]
}
