{
	"asset":{
		"generator":"Khronos glTF Blender I/O v3.5.30",
		"version":"2.0"
	},
	"extensionsUsed":[
		"KHR_materials_specular",
		"KHR_materials_ior"
	],
	"scene":0,
	"scenes":[
		{
			"name":"Scene",
			"nodes":[
				0
			]
		}
	],
	"nodes":[
		{
			"mesh":0,
			"name":"head",
			"translation":[
				0,
				3.345078706741333,
				0.037391092628240585
			]
		}
	],
	"animations":[
		{
			"channels":[
				{
					"sampler":0,
					"target":{
						"node":0,
						"path":"translation"
					}
				},
				{
					"sampler":1,
					"target":{
						"node":0,
						"path":"rotation"
					}
				},
				{
					"sampler":2,
					"target":{
						"node":0,
						"path":"scale"
					}
				}
			],
			"name":"head",
			"samplers":[
				{
					"input":4,
					"interpolation":"LINEAR",
					"output":5
				},
				{
					"input":4,
					"interpolation":"LINEAR",
					"output":6
				},
				{
					"input":4,
					"interpolation":"LINEAR",
					"output":7
				}
			]
		}
	],
	"materials":[
		{
			"doubleSided":true,
			"extensions":{
				"KHR_materials_specular":{
					"specularColorFactor":[
						2.371357614441398,
						2.371357614441398,
						2.371357614441398
					]
				},
				"KHR_materials_ior":{
					"ior":1.4500000476837158
				}
			},
			"name":"Alpha_Body_MAT",
			"pbrMetallicRoughness":{
				"baseColorFactor":[
					0.09657000750303268,
					0.42161980271339417,
					0.5220000147819519,
					1
				],
				"metallicFactor":0,
				"roughnessFactor":0.8082915544509888
			}
		}
	],
	"meshes":[
		{
			"name":"Alpha_Surface.003",
			"primitives":[
				{
					"attributes":{
						"POSITION":0,
						"TEXCOORD_0":1,
						"NORMAL":2
					},
					"indices":3,
					"material":0
				}
			]
		}
	],
	"accessors":[
		{
			"bufferView":0,
			"componentType":5126,
			"count":1024,
			"max":[
				0.16011129319667816,
				0.26418542861938477,
				0.22371399402618408
			],
			"min":[
				-0.16011252999305725,
				-0.25292372703552246,
				-0.2712654769420624
			],
			"type":"VEC3"
		},
		{
			"bufferView":1,
			"componentType":5126,
			"count":1024,
			"type":"VEC2"
		},
		{
			"bufferView":2,
			"componentType":5126,
			"count":1024,
			"type":"VEC3"
		},
		{
			"bufferView":3,
			"componentType":5123,
			"count":4830,
			"type":"SCALAR"
		},
		{
			"bufferView":4,
			"componentType":5126,
			"count":2,
			"max":[
				0.06666666666666667
			],
			"min":[
				0.03333333333333333
			],
			"type":"SCALAR"
		},
		{
			"bufferView":5,
			"componentType":5126,
			"count":2,
			"type":"VEC3"
		},
		{
			"bufferView":6,
			"componentType":5126,
			"count":2,
			"type":"VEC4"
		},
		{
			"bufferView":7,
			"componentType":5126,
			"count":2,
			"type":"VEC3"
		}
	],
	"bufferViews":[
		{
			"buffer":0,
			"byteLength":12288,
			"byteOffset":0,
			"target":34962
		},
		{
			"buffer":0,
			"byteLength":8192,
			"byteOffset":12288,
			"target":34962
		},
		{
			"buffer":0,
			"byteLength":12288,
			"byteOffset":20480,
			"target":34962
		},
		{
			"buffer":0,
			"byteLength":9660,
			"byteOffset":32768,
			"target":34963
		},
		{
			"buffer":0,
			"byteLength":8,
			"byteOffset":42428
		},
		{
			"buffer":0,
			"byteLength":24,
			"byteOffset":42436
		},
		{
			"buffer":0,
			"byteLength":32,
			"byteOffset":42460
		},
		{
			"buffer":0,
			"byteLength":24,
			"byteOffset":42492
		}
	],
	"buffers":[
		{
			"byteLength":42516,
			"uri":"data:application/octet-stream;base64,"
		}
	]
}
