{
	"asset":{
		"generator":"Khronos glTF Blender I/O v3.5.30",
		"version":"2.0"
	},
	"extensionsUsed":[
		"KHR_materials_specular",
		"KHR_materials_ior"
	],
	"scene":0,
	"scenes":[
		{
			"name":"Scene",
			"nodes":[
				0
			]
		}
	],
	"nodes":[
		{
			"mesh":0,
			"name":"leg.l",
			"translation":[
				0.18568672239780426,
				0.376079797744751,
				0.0337192602455616
			]
		}
	],
	"animations":[
		{
			"channels":[
				{
					"sampler":0,
					"target":{
						"node":0,
						"path":"translation"
					}
				},
				{
					"sampler":1,
					"target":{
						"node":0,
						"path":"rotation"
					}
				},
				{
					"sampler":2,
					"target":{
						"node":0,
						"path":"scale"
					}
				}
			],
			"name":"leg.l",
			"samplers":[
				{
					"input":8,
					"interpolation":"LINEAR",
					"output":9
				},
				{
					"input":8,
					"interpolation":"LINEAR",
					"output":10
				},
				{
					"input":8,
					"interpolation":"LINEAR",
					"output":11
				}
			]
		}
	],
	"materials":[
		{
			"doubleSided":true,
			"extensions":{
				"KHR_materials_specular":{
					"specularColorFactor":[
						2.371357614441398,
						2.371357614441398,
						2.371357614441398
					]
				},
				"KHR_materials_ior":{
					"ior":1.4500000476837158
				}
			},
			"name":"Alpha_Joints_MAT",
			"pbrMetallicRoughness":{
				"baseColorFactor":[
					0.15355153381824493,
					0.21289387345314026,
					0.2222171425819397,
					1
				],
				"metallicFactor":0.5,
				"roughnessFactor":0.858578622341156
			}
		},
		{
			"doubleSided":true,
			"extensions":{
				"KHR_materials_specular":{
					"specularColorFactor":[
						2.371357614441398,
						2.371357614441398,
						2.371357614441398
					]
				},
				"KHR_materials_ior":{
					"ior":1.4500000476837158
				}
			},
			"name":"Alpha_Body_MAT",
			"pbrMetallicRoughness":{
				"baseColorFactor":[
					0.09657000750303268,
					0.42161980271339417,
					0.5220000147819519,
					1
				],
				"metallicFactor":0,
				"roughnessFactor":0.8082915544509888
			}
		}
	],
	"meshes":[
		{
			"name":"Alpha_Joints.005",
			"primitives":[
				{
					"attributes":{
						"POSITION":0,
						"TEXCOORD_0":1,
						"NORMAL":2
					},
					"indices":3,
					"material":0
				},
				{
					"attributes":{
						"POSITION":4,
						"TEXCOORD_0":5,
						"NORMAL":6
					},
					"indices":7,
					"material":1
				}
			]
		}
	],
	"accessors":[
		{
			"bufferView":0,
			"componentType":5126,
			"count":1317,
			"max":[
				0.12153066694736481,
				0.798366904258728,
				0.24162884056568146
			],
			"min":[
				-0.11813991516828537,
				-0.36070191860198975,
				-0.19094586372375488
			],
			"type":"VEC3"
		},
		{
			"bufferView":1,
			"componentType":5126,
			"count":1317,
			"type":"VEC2"
		},
		{
			"bufferView":2,
			"componentType":5126,
			"count":1317,
			"type":"VEC3"
		},
		{
			"bufferView":3,
			"componentType":5123,
			"count":6840,
			"type":"SCALAR"
		},
		{
			"bufferView":4,
			"componentType":5126,
			"count":2258,
			"max":[
				0.1472749561071396,
				0.6861995458602905,
				0.37379589676856995
			],
			"min":[
				-0.14161385595798492,
				-0.37628427147865295,
				-0.2492850124835968
			],
			"type":"VEC3"
		},
		{
			"bufferView":5,
			"componentType":5126,
			"count":2258,
			"type":"VEC2"
		},
		{
			"bufferView":6,
			"componentType":5126,
			"count":2258,
			"type":"VEC3"
		},
		{
			"bufferView":7,
			"componentType":5123,
			"count":10728,
			"type":"SCALAR"
		},
		{
			"bufferView":8,
			"componentType":5126,
			"count":2,
			"max":[
				0.06666666666666667
			],
			"min":[
				0.03333333333333333
			],
			"type":"SCALAR"
		},
		{
			"bufferView":9,
			"componentType":5126,
			"count":2,
			"type":"VEC3"
		},
		{
			"bufferView":10,
			"componentType":5126,
			"count":2,
			"type":"VEC4"
		},
		{
			"bufferView":11,
			"componentType":5126,
			"count":2,
			"type":"VEC3"
		}
	],
	"bufferViews":[
		{
			"buffer":0,
			"byteLength":15804,
			"byteOffset":0,
			"target":34962
		},
		{
			"buffer":0,
			"byteLength":10536,
			"byteOffset":15804,
			"target":34962
		},
		{
			"buffer":0,
			"byteLength":15804,
			"byteOffset":26340,
			"target":34962
		},
		{
			"buffer":0,
			"byteLength":13680,
			"byteOffset":42144,
			"target":34963
		},
		{
			"buffer":0,
			"byteLength":27096,
			"byteOffset":55824,
			"target":34962
		},
		{
			"buffer":0,
			"byteLength":18064,
			"byteOffset":82920,
			"target":34962
		},
		{
			"buffer":0,
			"byteLength":27096,
			"byteOffset":100984,
			"target":34962
		},
		{
			"buffer":0,
			"byteLength":21456,
			"byteOffset":128080,
			"target":34963
		},
		{
			"buffer":0,
			"byteLength":8,
			"byteOffset":149536
		},
		{
			"buffer":0,
			"byteLength":24,
			"byteOffset":149544
		},
		{
			"buffer":0,
			"byteLength":32,
			"byteOffset":149568
		},
		{
			"buffer":0,
			"byteLength":24,
			"byteOffset":149600
		}
	],
	"buffers":[
		{
			"byteLength":149624,
			"uri":"data:application/octet-stream;base64,"
		}
	]
}
