{
	"asset":{
		"generator":"Khronos glTF Blender I/O v3.5.30",
		"version":"2.0"
	},
	"extensionsUsed":[
		"KHR_materials_specular",
		"KHR_materials_ior"
	],
	"scene":0,
	"scenes":[
		{
			"name":"Scene",
			"nodes":[
				0
			]
		}
	],
	"nodes":[
		{
			"mesh":0,
			"name":"thigh.r",
			"translation":[
				-0.19896845519542694,
				1.4793603420257568,
				0.001604420249350369
			]
		}
	],
	"animations":[
		{
			"channels":[
				{
					"sampler":0,
					"target":{
						"node":0,
						"path":"translation"
					}
				},
				{
					"sampler":1,
					"target":{
						"node":0,
						"path":"rotation"
					}
				},
				{
					"sampler":2,
					"target":{
						"node":0,
						"path":"scale"
					}
				}
			],
			"name":"thigh.r",
			"samplers":[
				{
					"input":8,
					"interpolation":"LINEAR",
					"output":9
				},
				{
					"input":8,
					"interpolation":"LINEAR",
					"output":10
				},
				{
					"input":8,
					"interpolation":"LINEAR",
					"output":11
				}
			]
		}
	],
	"materials":[
		{
			"doubleSided":true,
			"extensions":{
				"KHR_materials_specular":{
					"specularColorFactor":[
						2.371357614441398,
						2.371357614441398,
						2.371357614441398
					]
				},
				"KHR_materials_ior":{
					"ior":1.4500000476837158
				}
			},
			"name":"Alpha_Body_MAT",
			"pbrMetallicRoughness":{
				"baseColorFactor":[
					0.09657000750303268,
					0.42161980271339417,
					0.5220000147819519,
					1
				],
				"metallicFactor":0,
				"roughnessFactor":0.8082915544509888
			}
		},
		{
			"doubleSided":true,
			"extensions":{
				"KHR_materials_specular":{
					"specularColorFactor":[
						2.371357614441398,
						2.371357614441398,
						2.371357614441398
					]
				},
				"KHR_materials_ior":{
					"ior":1.4500000476837158
				}
			},
			"name":"Alpha_Joints_MAT",
			"pbrMetallicRoughness":{
				"baseColorFactor":[
					0.15355153381824493,
					0.21289387345314026,
					0.2222171425819397,
					1
				],
				"metallicFactor":0.5,
				"roughnessFactor":0.858578622341156
			}
		}
	],
	"meshes":[
		{
			"name":"Alpha_Surface.008",
			"primitives":[
				{
					"attributes":{
						"POSITION":0,
						"TEXCOORD_0":1,
						"NORMAL":2
					},
					"indices":3,
					"material":0
				},
				{
					"attributes":{
						"POSITION":4,
						"TEXCOORD_0":5,
						"NORMAL":6
					},
					"indices":7,
					"material":1
				}
			]
		}
	],
	"accessors":[
		{
			"bufferView":0,
			"componentType":5126,
			"count":1029,
			"max":[
				0.17567573487758636,
				0.4391838312149048,
				0.23338374495506287
			],
			"min":[
				-0.19226433336734772,
				-0.4675614833831787,
				-0.2252376526594162
			],
			"type":"VEC3"
		},
		{
			"bufferView":1,
			"componentType":5126,
			"count":1029,
			"type":"VEC2"
		},
		{
			"bufferView":2,
			"componentType":5126,
			"count":1029,
			"type":"VEC3"
		},
		{
			"bufferView":3,
			"componentType":5123,
			"count":4788,
			"type":"SCALAR"
		},
		{
			"bufferView":4,
			"componentType":5126,
			"count":282,
			"max":[
				0.12638750672340393,
				0.47527778148651123,
				0.16651073098182678
			],
			"min":[
				-0.14404483139514923,
				0.21695160865783691,
				-0.17084796726703644
			],
			"type":"VEC3"
		},
		{
			"bufferView":5,
			"componentType":5126,
			"count":282,
			"type":"VEC2"
		},
		{
			"bufferView":6,
			"componentType":5126,
			"count":282,
			"type":"VEC3"
		},
		{
			"bufferView":7,
			"componentType":5123,
			"count":1266,
			"type":"SCALAR"
		},
		{
			"bufferView":8,
			"componentType":5126,
			"count":2,
			"max":[
				0.06666666666666667
			],
			"min":[
				0.03333333333333333
			],
			"type":"SCALAR"
		},
		{
			"bufferView":9,
			"componentType":5126,
			"count":2,
			"type":"VEC3"
		},
		{
			"bufferView":10,
			"componentType":5126,
			"count":2,
			"type":"VEC4"
		},
		{
			"bufferView":11,
			"componentType":5126,
			"count":2,
			"type":"VEC3"
		}
	],
	"bufferViews":[
		{
			"buffer":0,
			"byteLength":12348,
			"byteOffset":0,
			"target":34962
		},
		{
			"buffer":0,
			"byteLength":8232,
			"byteOffset":12348,
			"target":34962
		},
		{
			"buffer":0,
			"byteLength":12348,
			"byteOffset":20580,
			"target":34962
		},
		{
			"buffer":0,
			"byteLength":9576,
			"byteOffset":32928,
			"target":34963
		},
		{
			"buffer":0,
			"byteLength":3384,
			"byteOffset":42504,
			"target":34962
		},
		{
			"buffer":0,
			"byteLength":2256,
			"byteOffset":45888,
			"target":34962
		},
		{
			"buffer":0,
			"byteLength":3384,
			"byteOffset":48144,
			"target":34962
		},
		{
			"buffer":0,
			"byteLength":2532,
			"byteOffset":51528,
			"target":34963
		},
		{
			"buffer":0,
			"byteLength":8,
			"byteOffset":54060
		},
		{
			"buffer":0,
			"byteLength":24,
			"byteOffset":54068
		},
		{
			"buffer":0,
			"byteLength":32,
			"byteOffset":54092
		},
		{
			"buffer":0,
			"byteLength":24,
			"byteOffset":54124
		}
	],
	"buffers":[
		{
			"byteLength":54148,
			"uri":"data:application/octet-stream;base64,"
		}
	]
}
