{
	"asset":{
		"generator":"Khronos glTF Blender I/O v3.5.30",
		"version":"2.0"
	},
	"extensionsUsed":[
		"KHR_materials_specular",
		"KHR_materials_ior"
	],
	"scene":0,
	"scenes":[
		{
			"name":"Scene",
			"nodes":[
				0
			]
		}
	],
	"nodes":[
		{
			"mesh":0,
			"name":"thigh.l",
			"translation":[
				0.19987468421459198,
				1.478413701057434,
				0.001075209118425846
			]
		}
	],
	"animations":[
		{
			"channels":[
				{
					"sampler":0,
					"target":{
						"node":0,
						"path":"translation"
					}
				},
				{
					"sampler":1,
					"target":{
						"node":0,
						"path":"rotation"
					}
				},
				{
					"sampler":2,
					"target":{
						"node":0,
						"path":"scale"
					}
				}
			],
			"name":"thigh.l",
			"samplers":[
				{
					"input":8,
					"interpolation":"LINEAR",
					"output":9
				},
				{
					"input":8,
					"interpolation":"LINEAR",
					"output":10
				},
				{
					"input":8,
					"interpolation":"LINEAR",
					"output":11
				}
			]
		}
	],
	"materials":[
		{
			"doubleSided":true,
			"extensions":{
				"KHR_materials_specular":{
					"specularColorFactor":[
						2.371357614441398,
						2.371357614441398,
						2.371357614441398
					]
				},
				"KHR_materials_ior":{
					"ior":1.4500000476837158
				}
			},
			"name":"Alpha_Joints_MAT",
			"pbrMetallicRoughness":{
				"baseColorFactor":[
					0.15355153381824493,
					0.21289387345314026,
					0.2222171425819397,
					1
				],
				"metallicFactor":0.5,
				"roughnessFactor":0.858578622341156
			}
		},
		{
			"doubleSided":true,
			"extensions":{
				"KHR_materials_specular":{
					"specularColorFactor":[
						2.371357614441398,
						2.371357614441398,
						2.371357614441398
					]
				},
				"KHR_materials_ior":{
					"ior":1.4500000476837158
				}
			},
			"name":"Alpha_Body_MAT",
			"pbrMetallicRoughness":{
				"baseColorFactor":[
					0.09657000750303268,
					0.42161980271339417,
					0.5220000147819519,
					1
				],
				"metallicFactor":0,
				"roughnessFactor":0.8082915544509888
			}
		}
	],
	"meshes":[
		{
			"name":"Alpha_Joints.006",
			"primitives":[
				{
					"attributes":{
						"POSITION":0,
						"TEXCOORD_0":1,
						"NORMAL":2
					},
					"indices":3,
					"material":0
				},
				{
					"attributes":{
						"POSITION":4,
						"TEXCOORD_0":5,
						"NORMAL":6
					},
					"indices":7,
					"material":1
				}
			]
		}
	],
	"accessors":[
		{
			"bufferView":0,
			"componentType":5126,
			"count":279,
			"max":[
				0.1431385725736618,
				0.476223349571228,
				0.16703954339027405
			],
			"min":[
				-0.10811352729797363,
				0.21789836883544922,
				-0.17031949758529663
			],
			"type":"VEC3"
		},
		{
			"bufferView":1,
			"componentType":5126,
			"count":279,
			"type":"VEC2"
		},
		{
			"bufferView":2,
			"componentType":5126,
			"count":279,
			"type":"VEC3"
		},
		{
			"bufferView":3,
			"componentType":5123,
			"count":1230,
			"type":"SCALAR"
		},
		{
			"bufferView":4,
			"componentType":5126,
			"count":1029,
			"max":[
				0.1913580745458603,
				0.4401291608810425,
				0.23390577733516693
			],
			"min":[
				-0.17658200860023499,
				-0.4666181802749634,
				-0.22471576929092407
			],
			"type":"VEC3"
		},
		{
			"bufferView":5,
			"componentType":5126,
			"count":1029,
			"type":"VEC2"
		},
		{
			"bufferView":6,
			"componentType":5126,
			"count":1029,
			"type":"VEC3"
		},
		{
			"bufferView":7,
			"componentType":5123,
			"count":4788,
			"type":"SCALAR"
		},
		{
			"bufferView":8,
			"componentType":5126,
			"count":2,
			"max":[
				0.06666666666666667
			],
			"min":[
				0.03333333333333333
			],
			"type":"SCALAR"
		},
		{
			"bufferView":9,
			"componentType":5126,
			"count":2,
			"type":"VEC3"
		},
		{
			"bufferView":10,
			"componentType":5126,
			"count":2,
			"type":"VEC4"
		},
		{
			"bufferView":11,
			"componentType":5126,
			"count":2,
			"type":"VEC3"
		}
	],
	"bufferViews":[
		{
			"buffer":0,
			"byteLength":3348,
			"byteOffset":0,
			"target":34962
		},
		{
			"buffer":0,
			"byteLength":2232,
			"byteOffset":3348,
			"target":34962
		},
		{
			"buffer":0,
			"byteLength":3348,
			"byteOffset":5580,
			"target":34962
		},
		{
			"buffer":0,
			"byteLength":2460,
			"byteOffset":8928,
			"target":34963
		},
		{
			"buffer":0,
			"byteLength":12348,
			"byteOffset":11388,
			"target":34962
		},
		{
			"buffer":0,
			"byteLength":8232,
			"byteOffset":23736,
			"target":34962
		},
		{
			"buffer":0,
			"byteLength":12348,
			"byteOffset":31968,
			"target":34962
		},
		{
			"buffer":0,
			"byteLength":9576,
			"byteOffset":44316,
			"target":34963
		},
		{
			"buffer":0,
			"byteLength":8,
			"byteOffset":53892
		},
		{
			"buffer":0,
			"byteLength":24,
			"byteOffset":53900
		},
		{
			"buffer":0,
			"byteLength":32,
			"byteOffset":53924
		},
		{
			"buffer":0,
			"byteLength":24,
			"byteOffset":53956
		}
	],
	"buffers":[
		{
			"byteLength":53980,
			"uri":"data:application/octet-stream;base64,"
		}
	]
}
